<?xml version="1.0" standalone="no"?>
<!DOCTYPE svg PUBLIC "-//W3C//DTD SVG 20010904//EN"
 "http://www.w3.org/TR/2001/REC-SVG-20010904/DTD/svg10.dtd">
<svg version="1.0" xmlns="http://www.w3.org/2000/svg"
 width="677.000000pt" height="179.000000pt" viewBox="0 0 677.000000 179.000000"
 preserveAspectRatio="xMidYMid meet">

<g transform="translate(0.000000,179.000000) scale(0.100000,-0.100000)"
fill="#000000" stroke="none">
<path d="M5580 1165 l0 -425 60 0 60 0 0 192 c0 228 9 259 88 306 62 36 165
39 209 6 63 -47 68 -68 71 -299 l3 -210 60 3 59 4 0 207 c0 275 -16 329 -117
388 -37 22 -62 28 -130 31 -96 5 -153 -11 -209 -60 l-34 -30 0 156 0 156 -60
0 -60 0 0 -425z"/>
<path d="M1025 1363 c-185 -22 -384 -74 -483 -126 l-44 -23 84 -23 c78 -21
180 -59 616 -225 335 -128 418 -135 458 -40 33 79 3 244 -59 326 -42 55 -102
84 -211 103 -80 14 -279 18 -361 8z"/>
<path d="M2142 1351 c-162 -56 -176 -224 -25 -289 27 -11 108 -32 182 -47 160
-31 193 -47 189 -90 -10 -99 -264 -115 -365 -23 -21 20 -21 20 -74 -4 l-53
-24 42 -46 c60 -64 124 -90 242 -96 154 -7 271 33 318 110 37 60 33 135 -9
182 -38 44 -99 67 -253 95 -120 22 -162 37 -185 65 -19 23 -3 56 35 72 72 30
247 7 277 -36 14 -20 14 -20 71 1 54 21 56 23 43 43 -24 35 -89 75 -152 91
-82 21 -216 19 -283 -4z"/>
<path d="M2889 1351 c-111 -35 -177 -104 -205 -212 -39 -153 23 -301 154 -368
125 -64 331 -46 432 38 100 82 134 275 70 401 -30 59 -103 117 -178 140 -81
25 -196 26 -273 1z m246 -110 c47 -22 89 -64 104 -104 17 -44 13 -137 -8 -183
-24 -52 -60 -80 -129 -100 -103 -30 -213 0 -269 73 -24 31 -28 47 -32 115 -3
69 0 82 23 122 37 63 106 96 200 96 48 0 84 -7 111 -19z"/>
<path d="M3658 1351 c-25 -10 -60 -28 -77 -40 l-31 -22 0 35 0 36 -55 0 -55 0
0 -395 0 -395 61 0 60 0 -3 125 c-2 69 -2 125 0 125 2 0 18 -11 36 -25 72 -55
206 -72 316 -39 76 23 153 100 175 179 27 90 18 214 -20 284 -33 61 -89 106
-163 133 -64 23 -183 23 -244 -1z m172 -92 c117 -25 177 -147 139 -284 -37
-133 -239 -178 -349 -78 -49 44 -63 86 -58 177 3 61 8 79 31 109 29 39 71 65
122 78 44 10 59 10 115 -2z"/>
<path d="M4775 1356 c-142 -45 -218 -148 -219 -296 0 -136 49 -226 155 -285
51 -28 61 -30 164 -30 104 0 113 2 167 31 l57 31 6 -36 6 -36 54 3 55 4 0 309
0 309 -55 0 c-54 0 -54 0 -61 -35 l-6 -34 -34 25 c-66 51 -198 69 -289 40z
m223 -117 c84 -41 122 -148 92 -259 -42 -156 -285 -187 -377 -49 -32 48 -43
144 -24 202 40 119 181 168 309 106z"/>
<path d="M4180 1050 l0 -310 60 0 60 0 0 180 c0 197 6 224 56 272 36 34 84 54
152 63 l52 7 0 49 0 49 -59 0 c-66 0 -111 -13 -160 -46 -40 -27 -51 -24 -51
17 0 29 -1 29 -55 29 l-55 0 0 -310z"/>
<path d="M6290 1050 l0 -310 60 0 60 0 0 158 c0 86 4 174 9 195 21 89 97 148
209 162 l52 7 0 49 0 49 -59 0 c-68 0 -127 -19 -176 -56 l-35 -26 0 41 0 41
-60 0 -60 0 0 -310z"/>
<path d="M167 598 c-47 -47 -57 -120 -31 -228 17 -73 48 -131 91 -173 109
-103 521 -113 840 -21 96 28 225 83 218 94 -3 4 -22 11 -42 15 -60 11 -230 70
-478 167 -313 123 -428 160 -507 166 -61 4 -68 2 -91 -20z"/>
<path d="M2070 417 c-42 -14 -64 -54 -55 -98 8 -35 37 -52 120 -69 69 -14 85
-24 85 -54 0 -39 -19 -46 -117 -46 -86 0 -93 -1 -93 -20 0 -19 7 -20 93 -20
104 0 156 20 159 62 5 81 -14 101 -109 118 -77 13 -93 23 -93 56 0 33 28 44
114 44 58 0 76 3 76 14 0 27 -114 35 -180 13z"/>
<path d="M2523 421 c-49 -13 -83 -39 -99 -76 -20 -49 -18 -124 6 -162 31 -52
63 -66 154 -71 147 -8 210 41 210 159 -1 68 -25 112 -73 135 -40 19 -150 27
-198 15z m167 -49 c41 -20 60 -53 60 -104 0 -85 -41 -118 -145 -118 -71 0
-117 17 -135 49 -13 26 -13 117 1 142 25 47 152 65 219 31z"/>
<path d="M2960 264 l0 -155 23 3 c20 3 22 8 22 63 l0 60 88 3 c67 2 87 6 87
17 0 11 -20 15 -87 17 l-87 3 -2 53 -1 52 99 0 c91 0 98 1 98 20 0 19 -7 20
-120 20 l-120 0 0 -156z"/>
<path d="M3330 400 c0 -18 7 -20 65 -20 l64 0 3 -132 c3 -129 4 -133 26 -136
22 -3 22 -3 22 132 l0 135 67 3 c55 2 68 6 71 21 3 16 -10 17 -157 17 -154 0
-161 -1 -161 -20z"/>
<path d="M3763 408 c109 -276 119 -298 142 -298 20 0 29 15 71 124 27 69 51
123 53 120 3 -3 26 -58 51 -122 41 -105 48 -117 70 -117 22 0 30 14 86 150 57
139 60 150 42 153 -11 2 -24 0 -28 -5 -4 -4 -27 -61 -51 -125 -24 -65 -47
-114 -50 -110 -4 4 -26 60 -50 125 -41 110 -45 117 -71 117 -19 0 -29 -6 -34
-22 -3 -13 -25 -70 -47 -128 -40 -104 -41 -105 -52 -75 -7 17 -29 74 -50 128
-33 87 -40 97 -62 97 -16 0 -23 -5 -20 -12z"/>
<path d="M4487 358 c-19 -35 -56 -105 -81 -155 l-46 -93 25 0 c20 0 30 9 47
45 l22 45 91 0 91 0 22 -45 c17 -36 27 -45 48 -45 14 0 24 3 22 8 -1 4 -37 73
-78 154 -68 135 -77 148 -102 148 -22 0 -32 -10 -61 -62z m97 -55 l36 -73 -75
0 -75 0 37 75 c20 41 38 73 39 72 1 -1 18 -35 38 -74z"/>
<path d="M4880 266 c0 -149 1 -156 20 -156 18 0 20 7 20 60 l0 60 53 0 c52 0
52 -1 97 -60 36 -49 50 -60 73 -60 22 0 27 3 20 13 -5 6 -27 34 -49 61 -30 38
-36 50 -24 54 8 3 27 18 42 33 35 35 37 78 4 116 -24 27 -27 28 -140 31 l-116
4 0 -156z m190 111 c29 -10 36 -18 38 -43 5 -51 -17 -64 -109 -64 l-79 0 0 60
0 60 58 -1 c31 0 73 -5 92 -12z"/>
<path d="M5340 265 l0 -156 117 3 c103 3 118 5 121 21 3 15 -7 17 -98 17
l-101 0 3 52 3 51 84 1 c72 1 84 4 87 19 2 15 -8 17 -87 17 l-89 0 0 45 0 45
95 0 c88 0 95 1 95 20 0 19 -7 20 -115 20 l-115 0 0 -155z"/>
</g>
</svg>
